<svg width="20" height="20" viewBox="0 0 20 20" fill="none" xmlns="http://www.w3.org/2000/svg">
<path fill-rule="evenodd" clip-rule="evenodd" d="M19.0607 0.93934C19.6464 1.52513 19.6464 2.47487 19.0607 3.06066L3.06066 19.0607C2.47487 19.6464 1.52513 19.6464 0.93934 19.0607C0.353553 18.4749 0.353553 17.5251 0.93934 16.9393L16.9393 0.93934C17.5251 0.353553 18.4749 0.353553 19.0607 0.93934Z" fill="black"/>
<path fill-rule="evenodd" clip-rule="evenodd" d="M0.93934 0.93934C1.52513 0.353553 2.47487 0.353553 3.06066 0.93934L19.0607 16.9393C19.6464 17.5251 19.6464 18.4749 19.0607 19.0607C18.4749 19.6464 17.5251 19.6464 16.9393 19.0607L0.93934 3.06066C0.353553 2.47487 0.353553 1.52513 0.93934 0.93934Z" fill="black"/>
</svg>
