<svg width="12" height="8" fill="none" xmlns="http://www.w3.org/2000/svg"><path fill-rule="evenodd" clip-rule="evenodd" d="M.496.996a.828.828 0 011.16 0L6 5.284 10.344.996a.828.828 0 011.16 0c.32.317.32.83 0 1.146L6.58 7.003a.828.828 0 01-1.16 0L.496 2.142a.803.803 0 010-1.146z" fill="#828282"/><path fill-rule="evenodd" clip-rule="evenodd" d="M5.42 7.003c.32.316.84.316 1.16 0l4.924-4.861a.803.803 0 000-1.146.828.828 0 00-1.16 0L6 5.284 1.656.996a.828.828 0 00-1.16 0 .803.803 0 000 1.146L5.42 7.003zM6 4.923L1.834.81a1.08 1.08 0 00-1.516 0 1.065 1.065 0 000 1.518l4.924 4.861a1.08 1.08 0 001.516 0l4.924-4.861c.424-.418.424-1.1 0-1.518a1.08 1.08 0 00-1.516 0L6 4.923z" fill="#828282"/></svg>