<svg width="51" height="52" viewBox="0 0 51 52" fill="none" xmlns="http://www.w3.org/2000/svg">
<path d="M19.1804 21.0503C18.7898 20.6597 18.7898 20.0266 19.1804 19.636C19.5709 19.2455 20.2041 19.2455 20.5946 19.636L31.9083 30.9497C32.2988 31.3403 32.2988 31.9734 31.9083 32.364C31.5178 32.7545 30.8846 32.7545 30.4941 32.364L19.1804 21.0503Z" fill="#77818C"/>
<path d="M20.5946 32.364C20.2041 32.7545 19.5709 32.7545 19.1804 32.364C18.7898 31.9734 18.7898 31.3403 19.1804 30.9497L30.4941 19.636C30.8846 19.2455 31.5178 19.2455 31.9083 19.636C32.2988 20.0266 32.2988 20.6597 31.9083 21.0503L20.5946 32.364Z" fill="#77818C"/>
</svg>
