<svg width="27" height="28" fill="none" xmlns="http://www.w3.org/2000/svg"><rect width="27" height="28" rx="13.5" fill="#E8EDF5"/><path d="M13.5 10.605a3.145 3.145 0 00-3.145 3.145 3.128 3.128 0 003.145 3.145 3.145 3.145 0 003.145-3.145 3.163 3.163 0 00-3.145-3.145zm0 5.196a2.048 2.048 0 01-2.05-2.051c0-1.121.902-2.023 2.05-2.023 1.121 0 2.023.902 2.023 2.023 0 1.148-.902 2.05-2.023 2.05zm3.992-5.305a.735.735 0 00-.738-.738.735.735 0 00-.738.738c0 .41.328.738.738.738s.738-.328.738-.738zm2.078.738c-.054-.984-.273-1.859-.984-2.57-.711-.71-1.586-.93-2.57-.984-1.012-.055-4.047-.055-5.059 0-.984.054-1.832.273-2.57.984-.711.711-.93 1.586-.985 2.57-.054 1.012-.054 4.047 0 5.059.055.984.274 1.832.985 2.57.738.711 1.586.93 2.57.985 1.012.054 4.047.054 5.059 0 .984-.055 1.859-.274 2.57-.985.71-.738.93-1.586.984-2.57.055-1.012.055-4.047 0-5.059zm-1.312 6.125c-.192.547-.63.957-1.149 1.176-.82.328-2.734.246-3.609.246-.902 0-2.816.082-3.61-.246a2.074 2.074 0 01-1.175-1.176c-.328-.793-.246-2.707-.246-3.609 0-.875-.082-2.79.246-3.61A2.11 2.11 0 019.89 8.993c.793-.328 2.707-.246 3.609-.246.875 0 2.79-.082 3.61.246.519.192.93.63 1.148 1.149.328.82.246 2.734.246 3.609 0 .902.082 2.816-.246 3.61z" fill="#17479E"/></svg>