<svg width="27" height="28" fill="none" xmlns="http://www.w3.org/2000/svg"><rect width="27" height="28" rx="13.5" fill="#E8EDF5"/><path d="M18.75 7.625H8.223c-.465 0-.848.41-.848.902V19c0 .492.383.875.848.875H18.75a.881.881 0 00.875-.875V8.527c0-.492-.41-.902-.875-.902zm-7.684 10.5H9.262v-5.824h1.804v5.824zm-.902-6.645c-.601 0-1.066-.464-1.066-1.039 0-.574.464-1.066 1.066-1.066.574 0 1.04.492 1.04 1.066a1.04 1.04 0 01-1.04 1.04zm7.711 6.645h-1.832v-2.844c0-.656 0-1.531-.93-1.531-.957 0-1.093.738-1.093 1.504v2.871h-1.805v-5.824h1.723v.793h.027c.246-.465.848-.957 1.723-.957 1.832 0 2.187 1.23 2.187 2.789v3.199z" fill="#17479E"/></svg>