<svg width="48" height="41" fill="none" xmlns="http://www.w3.org/2000/svg"><path d="M43.209 19.173a4.727 4.727 0 00-4.156-4.686V2.383A1.6 1.6 0 0037.857.822a1.6 1.6 0 00-1.819.748c-2.557 4.4-6.584 7.406-11.97 8.937-4.072 1.158-7.432.99-7.465.988a.934.934 0 00-.147.005h-8.61C3.518 11.5 0 15.02 0 19.345c0 4.075 3.123 7.432 7.1 7.809l2.597 10.68a3.137 3.137 0 003.056 2.402h1.803c.971 0 1.872-.438 2.472-1.202.6-.763.813-1.742.584-2.686l-2.227-9.158h1.07a.932.932 0 00.147.005c.034-.002 3.394-.17 7.466.988 5.386 1.53 9.413 4.538 11.97 8.936a1.597 1.597 0 001.819.75 1.6 1.6 0 001.196-1.562V24.203a4.726 4.726 0 004.156-4.686v-.344zm-27.716 16.4l.297 1.218c.092.38.007.776-.236 1.085a1.262 1.262 0 01-.998.485h-1.803a1.267 1.267 0 01-1.234-.97l-2.48-10.2h4.416l.662 2.722h-.448a.937.937 0 100 1.875h.904l.464 1.91h-.293a.938.938 0 000 1.875h.75zm.12-14.236H9.786a.937.937 0 100 1.875h5.827v2.103h-1.37l-.052-.002H7.845l-.026.002a5.977 5.977 0 01-5.944-5.97 5.977 5.977 0 015.97-5.97h7.768v7.962zm21.565-5.947v20c-2.81-4.368-7.167-7.482-12.66-9.029a28.265 28.265 0 00-7.03-1.05V13.38a28.257 28.257 0 007.03-1.05c5.492-1.548 9.85-4.66 12.66-9.03v12.09zm4.156 4.127a2.85 2.85 0 01-2.281 2.79v-5.923a2.85 2.85 0 012.28 2.789v.344zm2.156-5.642a.93.93 0 00.63-.244l2.705-2.463a.938.938 0 00-1.263-1.386l-2.704 2.463a.938.938 0 00.632 1.63zm.63 11.184a.938.938 0 00-1.262 1.386l2.704 2.463a.934.934 0 001.325-.062.938.938 0 00-.062-1.325L44.12 25.06zm2.943-6.651h-2.077a.938.938 0 000 1.875h2.077a.937.937 0 100-1.875z" fill="#17479e"/><path d="M6.79 21.916a.928.928 0 00-.683-.56.927.927 0 00-.704.139.896.896 0 00-.259.259.928.928 0 00-.14.337.924.924 0 00.256.846.954.954 0 00.48.257.928.928 0 00.542-.054.945.945 0 00.56-.682.938.938 0 00-.053-.542z" fill="#17479e"/></svg>