<svg width="28" height="28" fill="none" xmlns="http://www.w3.org/2000/svg"><rect width="28" height="28" rx="14" fill="#E8EDF5"/><path d="M19.55 10.906a6.082 6.082 0 001.423-1.476 5.382 5.382 0 01-1.641.437 2.805 2.805 0 001.258-1.586 6.063 6.063 0 01-1.805.711 2.871 2.871 0 00-2.105-.902 2.87 2.87 0 00-2.871 2.87c0 .22.027.438.082.657A8.33 8.33 0 017.957 8.61c-.246.41-.383.903-.383 1.45 0 .984.492 1.859 1.285 2.379-.464-.028-.93-.137-1.312-.356v.027c0 1.395.984 2.543 2.297 2.817-.219.054-.492.11-.739.11-.19 0-.355-.028-.546-.056a2.857 2.857 0 002.68 1.997 5.773 5.773 0 01-3.555 1.23c-.247 0-.465-.027-.684-.055 1.258.82 2.762 1.285 4.402 1.285 5.278 0 8.149-4.347 8.149-8.148v-.383z" fill="#17479E"/></svg>