<svg width="12" height="8" viewBox="0 0 12 8" fill="none" xmlns="http://www.w3.org/2000/svg">
<path fill-rule="evenodd" clip-rule="evenodd" d="M0.495687 0.996191C0.816178 0.679793 1.3358 0.679793 1.65629 0.996191L6 5.28441L10.3437 0.996191C10.6642 0.679793 11.1838 0.679793 11.5043 0.996191C11.8248 1.31259 11.8248 1.82557 11.5043 2.14197L6.5803 7.00308C6.25981 7.31947 5.74019 7.31947 5.4197 7.00308L0.495687 2.14197C0.175196 1.82557 0.175196 1.31259 0.495687 0.996191Z" fill="#828282"/>
<path fill-rule="evenodd" clip-rule="evenodd" d="M5.4197 7.00308C5.74019 7.31947 6.25981 7.31947 6.5803 7.00308L11.5043 2.14197C11.8248 1.82557 11.8248 1.31259 11.5043 0.996191C11.1838 0.679793 10.6642 0.679793 10.3437 0.996191L6 5.28441L1.65629 0.996191C1.3358 0.679793 0.816178 0.679793 0.495687 0.996191C0.175196 1.31259 0.175196 1.82557 0.495687 2.14197L5.4197 7.00308ZM6 4.92282L1.83427 0.810303C1.41468 0.396077 0.737296 0.396077 0.31771 0.810303C-0.105903 1.2285 -0.105903 1.90965 0.31771 2.32785L5.24172 7.18896C5.66131 7.60319 6.33869 7.60319 6.75828 7.18896L11.6823 2.32785C12.1059 1.90965 12.1059 1.2285 11.6823 0.810303C11.2627 0.396077 10.5853 0.396077 10.1657 0.810303L6 4.92282Z" fill="#828282"/>
</svg>
