<svg width="16" height="16" viewBox="0 0 16 16" fill="none" xmlns="http://www.w3.org/2000/svg">
<path d="M6.3202 12.1812L2.1802 8.00117L3.35186 6.8295L6.32103 9.79867L12.6494 3.47034L13.821 4.68117L6.3202 12.1812ZM13.8202 0.501172H2.1802C1.95705 0.492728 1.73453 0.529989 1.52631 0.61067C1.31809 0.69135 1.12856 0.813745 0.969362 0.970338C0.812769 1.12954 0.690374 1.31907 0.609694 1.52729C0.529013 1.73551 0.491751 1.95803 0.500195 2.18117V13.8212C0.495847 14.0426 0.536936 14.2626 0.620927 14.4676C0.704917 14.6725 0.830026 14.8581 0.988529 15.0128C1.14325 15.1713 1.32882 15.2965 1.53378 15.3804C1.73874 15.4644 1.95874 15.5055 2.1802 15.5012H13.8202C14.0417 15.5055 14.2617 15.4644 14.4666 15.3804C14.6716 15.2965 14.8571 15.1713 15.0119 15.0128C15.1704 14.8581 15.2955 14.6725 15.3795 14.4676C15.4635 14.2626 15.5045 14.0426 15.5002 13.8212V2.18117C15.5082 1.95639 15.4689 1.73243 15.3848 1.52383C15.3007 1.31523 15.1736 1.12665 15.0119 0.970338C14.8543 0.816929 14.6678 0.696432 14.4632 0.61588C14.2586 0.535327 14.04 0.496333 13.8202 0.501172Z" fill="#17479E"/>
</svg>
