<svg width="24" height="24" viewBox="0 0 24 24" fill="none" xmlns="http://www.w3.org/2000/svg">
<path fill-rule="evenodd" clip-rule="evenodd" d="M18.0714 19.6693C18.5126 20.1105 19.2279 20.1105 19.6691 19.6693C20.1103 19.2281 20.1103 18.5128 19.6691 18.0716L13.5978 12.0003L19.6691 5.929C20.1103 5.4878 20.1103 4.77247 19.6691 4.33127C19.2279 3.89007 18.5126 3.89007 18.0714 4.33127L12.0001 10.4025L5.92863 4.33108C5.48743 3.88988 4.7721 3.88988 4.3309 4.33108C3.8897 4.77228 3.8897 5.48761 4.3309 5.92881L10.4024 12.0003L4.3309 18.0717C3.8897 18.5129 3.8897 19.2283 4.3309 19.6695C4.7721 20.1107 5.48743 20.1107 5.92863 19.6695L12.0001 13.598L18.0714 19.6693ZM12.0001 13.598L13.5978 12.0003L12.0001 10.4025L10.4024 12.0003L12.0001 13.598Z" fill="#77818C"/>
<path d="M12.0001 13.598L13.5978 12.0003L12.0001 10.4025L10.4024 12.0003L12.0001 13.598Z" fill="#77818C"/>
</svg>
