<svg width="48" height="41" viewBox="0 0 48 41" fill="none" xmlns="http://www.w3.org/2000/svg">
<path d="M43.209 19.1727C43.209 16.7611 41.3906 14.7674 39.0532 14.4873V2.38328C39.0532 1.64218 38.5724 1.01462 37.8568 0.821777C37.1414 0.629121 36.4104 0.929871 36.0381 1.57046C33.4812 5.9694 29.4541 8.97615 24.0685 10.5074C19.9961 11.6652 16.6356 11.4974 16.6031 11.4954C16.5538 11.4926 16.5048 11.4949 16.4562 11.4998H7.84519C3.51938 11.4998 0 15.0192 0 19.345C0 23.4195 3.12253 26.7772 7.10006 27.1538L9.69731 37.834C10.0412 39.2481 11.2978 40.2358 12.7532 40.2358H14.5558C15.527 40.2358 16.4282 39.7979 17.0284 39.0343C17.6286 38.2707 17.8411 37.2915 17.6117 36.3478L15.3847 27.1901H16.4546C16.5034 27.1951 16.5526 27.1974 16.6023 27.1946C16.6357 27.1927 19.9961 27.0247 24.0685 28.1826C29.454 29.7138 33.4811 32.7206 36.0381 37.1194C36.3353 37.631 36.8612 37.9259 37.4252 37.9259C37.5677 37.9259 37.7125 37.907 37.8568 37.8682C38.5724 37.6754 39.0532 37.0479 39.0532 36.3068V24.2026C41.3906 23.9226 43.209 21.9289 43.209 19.5173V19.1727ZM15.4935 35.5728L15.7897 36.7908C15.8824 37.1719 15.7966 37.5674 15.5542 37.8757C15.3119 38.1841 14.948 38.3609 14.5558 38.3609H12.7532C12.1655 38.3609 11.6581 37.9621 11.5192 37.391L9.03853 27.1902H13.455L14.1172 29.9132H13.669C13.1512 29.9132 12.7315 30.3329 12.7315 30.8507C12.7315 31.3684 13.1512 31.7882 13.669 31.7882H14.5731L15.0375 33.6978H14.7437C14.2259 33.6978 13.8062 34.1176 13.8062 34.6353C13.8062 35.1531 14.2259 35.5728 14.7437 35.5728H15.4935ZM15.6125 21.3368H9.78628C9.2685 21.3368 8.84878 21.7565 8.84878 22.2743C8.84878 22.7921 9.2685 23.2118 9.78628 23.2118H15.6125V25.3152H14.2429C14.2257 25.3142 14.2087 25.313 14.1912 25.313H7.84519C7.83628 25.313 7.82747 25.3143 7.81856 25.3145C4.53891 25.3 1.875 22.628 1.875 19.345C1.875 16.0531 4.55325 13.3748 7.84519 13.3748H15.6125V21.3368ZM37.178 15.39V23.3V35.3909C34.3685 31.0216 30.0105 27.9084 24.518 26.3612C21.4768 25.5046 18.85 25.3335 17.4875 25.3112V22.2743V13.3787C18.8502 13.3565 21.4771 13.1853 24.518 12.3287C30.0104 10.7815 34.3685 7.66843 37.178 3.29912V15.39ZM41.3338 19.5173C41.3338 20.893 40.3525 22.0438 39.053 22.3063V16.3837C40.3524 16.6462 41.3338 17.797 41.3338 19.1727V19.5173Z" fill="#17479e"/>
<path d="M43.4896 13.8752C43.7149 13.8752 43.9409 13.7944 44.1206 13.6309L46.8246 11.1682C47.2074 10.8196 47.2351 10.2267 46.8865 9.84382C46.5378 9.46103 45.9449 9.43338 45.5621 9.78194L42.8581 12.2445C42.4754 12.5931 42.4476 13.186 42.7963 13.5689C42.9813 13.772 43.235 13.8752 43.4896 13.8752Z" fill="#17479e"/>
<path d="M44.1207 25.0588C43.7378 24.7102 43.1449 24.7379 42.7963 25.1207C42.4476 25.5035 42.4754 26.0964 42.8581 26.4451L45.5621 28.9076C45.7419 29.0713 45.9678 29.152 46.1931 29.152C46.4477 29.152 46.7015 29.0489 46.8865 28.8457C47.2351 28.463 47.2074 27.87 46.8246 27.5213L44.1207 25.0588Z" fill="#17479e"/>
<path d="M47.0625 18.4077H44.9862C44.4685 18.4077 44.0487 18.8274 44.0487 19.3452C44.0487 19.863 44.4685 20.2827 44.9862 20.2827H47.0625C47.5803 20.2827 48 19.863 48 19.3452C48 18.8274 47.5803 18.4077 47.0625 18.4077Z" fill="#17479e"/>
<path d="M6.78944 21.9158C6.766 21.8586 6.73694 21.8043 6.70319 21.7536C6.6685 21.7021 6.63006 21.6543 6.58694 21.6111C6.54287 21.568 6.49506 21.5286 6.4435 21.4949C6.39288 21.4611 6.3385 21.4321 6.28225 21.4086C6.22506 21.3852 6.166 21.3674 6.10694 21.3552C5.986 21.3308 5.86131 21.3308 5.74037 21.3552C5.68037 21.3674 5.62131 21.3852 5.56506 21.4086C5.50881 21.4321 5.4535 21.4611 5.40287 21.4949C5.35131 21.5286 5.3035 21.568 5.26037 21.6111C5.21725 21.6543 5.17787 21.7021 5.14412 21.7536C5.11037 21.8043 5.08131 21.8586 5.05787 21.9158C5.03444 21.9721 5.01662 22.0311 5.00444 22.0911C4.99225 22.1511 4.98569 22.213 4.98569 22.2739C4.98569 22.3349 4.99225 22.3968 5.00444 22.4577C5.01662 22.5168 5.03444 22.5758 5.05787 22.633C5.08131 22.6893 5.11037 22.7436 5.14412 22.7943C5.17787 22.8458 5.21725 22.8936 5.26037 22.9368C5.3035 22.9799 5.35131 23.0193 5.40287 23.0539C5.4535 23.0877 5.50881 23.1168 5.56506 23.1402C5.62131 23.1636 5.68037 23.1814 5.74037 23.1936C5.80131 23.2058 5.86225 23.2114 5.92319 23.2114C5.98506 23.2114 6.046 23.2058 6.10694 23.1936C6.16694 23.1814 6.22506 23.1636 6.28225 23.1402C6.3385 23.1168 6.39288 23.0877 6.4435 23.0539C6.49506 23.0193 6.54287 22.9799 6.58694 22.9368C6.63006 22.8936 6.6685 22.8458 6.70319 22.7943C6.73694 22.7436 6.766 22.6893 6.78944 22.633C6.81287 22.5758 6.83069 22.5168 6.84287 22.4577C6.85506 22.3968 6.86069 22.3349 6.86069 22.2739C6.86069 22.213 6.85506 22.1511 6.84287 22.0911C6.83069 22.0311 6.81287 21.9721 6.78944 21.9158Z" fill="#17479e"/>
</svg>
